<?xml version="1.0" standalone="no"?>
<!DOCTYPE svg PUBLIC "-//W3C//DTD SVG 1.1//EN" "http://www.w3.org/Graphics/SVG/1.1/DTD/svg11.dtd" >
<svg>
<metadata>
Created by FontForge 20110222 at Mon Mar  7 13:18:05 2011
 By www-data
Copyright (c) 2009 by Tour De Force &#38; Slobodan Jelesijevic. All rights reserved.
</metadata>
<defs>
<font id="Oblik-Bold" horiz-adv-x="581" >
  <font-face 
    font-family="Oblik Bold"
    font-weight="700"
    font-style="oblique"
    font-stretch="normal"
    units-per-em="1000"
    panose-1="2 0 5 3 0 0 0 2 0 4"
    ascent="800"
    descent="-200"
    x-height="524"
    cap-height="700"
    bbox="-35 -242 1070 910"
    underline-thickness="50"
    underline-position="-50"
    unicode-range="U+0020-2122"
  />
    <missing-glyph />
    <glyph glyph-name="space" unicode=" " horiz-adv-x="301" 
 />
    <glyph glyph-name="exclam" unicode="!" horiz-adv-x="321" 
d="M95 700h131l-15 -530h-100zM223 0v126h-125v-126h125z" />
    <glyph glyph-name="quotedbl" unicode="&#x22;" horiz-adv-x="395" 
d="M65 700h88l-7 -214h-76zM242 700h88l-7 -214h-76z" />
    <glyph glyph-name="numbersign" unicode="#" horiz-adv-x="617" 
d="M153 405h-118v89h132l32 223h90l-33 -223h144l32 223h91l-32 -223h91v-89h-104l-16 -107h120v-89h-133l-31 -223h-93l34 223h-143l-33 -223h-91l33 223h-90v89h103zM229 298h142l16 107h-144z" />
    <glyph glyph-name="dollar" unicode="$" horiz-adv-x="556" 
d="M241 449v138c-38 -6 -79 -24 -79 -65c0 -36 39 -58 79 -73zM241 -96v85c-72 0 -139 14 -207 36v123h16c55 -19 121 -37 191 -37v194c-33 10 -65 21 -96 36c-72 36 -114 102 -114 178c0 55 29 105 68 139c40 33 91 48 142 52v86h73v-87c56 -5 109 -16 165 -32v-122h-18
c-38 15 -95 27 -147 32v-163c45 -15 91 -30 132 -57c55 -39 79 -102 79 -164c0 -59 -27 -113 -69 -148c-41 -34 -91 -53 -142 -61v-90h-73zM314 283v-164c42 11 81 35 80 82c-1 44 -40 68 -80 82z" />
    <glyph glyph-name="percent" unicode="%" horiz-adv-x="804" 
d="M65 532c0 108 56 179 146 179s146 -72 146 -179s-56 -178 -146 -178s-146 71 -146 178zM141 531c0 -56 23 -110 70 -110s70 54 70 110s-23 110 -70 110s-70 -54 -70 -110zM447 167c0 108 56 179 146 179s146 -72 146 -179s-56 -178 -146 -178s-146 71 -146 178zM523 166
c0 -56 23 -110 70 -110s70 54 70 110s-23 110 -70 110s-70 -54 -70 -110zM239 -13h-75l390 729h72z" />
    <glyph glyph-name="ampersand" unicode="&#x26;" horiz-adv-x="679" 
d="M275 103c44 -2 98 10 128 41l-145 177c-45 -28 -84 -52 -87 -111c-3 -62 40 -106 104 -107zM312 605c-39 1 -59 -31 -59 -61c0 -28 25 -53 43 -74c32 18 68 36 68 71c2 30 -16 62 -52 64zM479 541c-3 -81 -50 -115 -111 -158l97 -119c6 17 9 54 9 70h116
c-3 -59 -14 -122 -36 -177l130 -158h-160l-48 56c-58 -47 -118 -66 -182 -66c-129 0 -238 82 -238 216c0 92 56 159 128 203c0 3 -3 5 -4 6c-30 38 -52 79 -51 130c2 47 18 87 45 114c32 35 82 53 138 53c54 0 97 -18 126 -51c25 -29 43 -72 41 -119z" />
    <glyph glyph-name="quotesingle" unicode="'" horiz-adv-x="218" 
d="M65 700h88l-7 -214h-76z" />
    <glyph glyph-name="parenleft" unicode="(" horiz-adv-x="367" 
d="M352 701v-84c-117 -78 -166 -248 -165 -381c0 -140 43 -308 165 -390v-88c-206 76 -292 268 -286 478c4 205 82 392 286 465z" />
    <glyph glyph-name="parenright" unicode=")" horiz-adv-x="367" 
d="M15 617v84c204 -73 282 -260 286 -465c6 -210 -80 -402 -286 -478v88c122 82 165 250 165 390c1 133 -48 303 -165 381z" />
    <glyph glyph-name="asterisk" unicode="*" horiz-adv-x="507" 
d="M210 340l14 147l-118 -79l-41 75l129 53l-129 54l41 75l118 -80l-13 149h85l-13 -149l117 80l42 -75l-128 -54l128 -53l-42 -75l-117 79l12 -147h-85z" />
    <glyph glyph-name="plus" unicode="+" horiz-adv-x="597" 
d="M343 113h-89v188h-189v91h189v189h89v-189h189v-91h-189v-188z" />
    <glyph glyph-name="comma" unicode="," horiz-adv-x="346" 
d="M45 -162l79 295h137l-130 -295h-86z" />
    <glyph glyph-name="hyphen" unicode="-" horiz-adv-x="481" 
d="M416 209h-351v107h351v-107z" />
    <glyph glyph-name="period" unicode="." horiz-adv-x="324" 
d="M229 133v-133h-134v133h134z" />
    <glyph glyph-name="slash" unicode="/" horiz-adv-x="295" 
d="M79 -13h-74l209 728h76z" />
    <glyph glyph-name="zero" unicode="0" horiz-adv-x="685" 
d="M45 350c0 219 118 361 297 361s298 -142 298 -361s-119 -361 -298 -361s-297 142 -297 361zM175 349c0 -152 65 -248 166 -248c102 0 167 96 167 248s-65 249 -167 249s-166 -97 -166 -249z" />
    <glyph glyph-name="one" unicode="1" horiz-adv-x="425" 
d="M330 0h-127v576l-104 -92l-74 83l116 98c29 25 64 42 103 42c61 0 86 -39 86 -95v-612z" />
    <glyph glyph-name="two" unicode="2" horiz-adv-x="496" 
d="M450 110v-110h-435v82l272 342c17 23 33 55 33 79c2 64 -60 98 -115 98s-104 -14 -135 -42h-15v115c57 26 106 37 167 37c68 -1 135 -23 181 -72c34 -37 48 -89 48 -136c0 -53 -21 -108 -52 -143l-216 -250h267z" />
    <glyph glyph-name="three" unicode="3" horiz-adv-x="502" 
d="M31 141c46 -26 109 -45 165 -44c58 -1 125 43 125 109c0 86 -88 109 -163 109h-53v109h36c59 0 146 5 146 86c0 60 -59 93 -110 93c-45 0 -96 -8 -133 -34h-16v112c52 19 98 30 153 30c113 0 236 -61 236 -190c0 -57 -36 -125 -97 -144c69 -21 132 -89 132 -171
c0 -148 -129 -217 -270 -217c-53 0 -105 11 -167 36v116h16z" />
    <glyph glyph-name="four" unicode="4" horiz-adv-x="561" 
d="M338 557l-190 -285h190v285zM465 609v-337h71v-115h-71v-157h-127v157h-259c-27 0 -53 14 -65 36c-10 19 -13 43 1 68l265 399c23 35 62 47 100 47c56 0 85 -47 85 -98z" />
    <glyph glyph-name="five" unicode="5" horiz-adv-x="515" 
d="M184 590v-123c58 0 117 -7 168 -33c74 -40 118 -116 118 -204c0 -153 -136 -241 -284 -241c-51 0 -100 16 -151 35v122h16c44 -31 104 -44 156 -44c79 0 135 49 135 133c0 94 -92 124 -178 124h-107v341h392v-110h-265z" />
    <glyph glyph-name="six" unicode="6" horiz-adv-x="591" 
d="M514 557h-16c-38 28 -94 44 -143 44c-82 0 -145 -60 -168 -138c28 27 81 40 132 40c58 0 118 -26 160 -66c47 -49 72 -116 72 -188c0 -67 -22 -135 -72 -187c-45 -48 -111 -73 -180 -73c-82 0 -159 41 -204 117c-41 68 -51 146 -49 224c1 84 20 170 65 243
c55 89 140 137 245 138c61 0 104 -14 158 -42v-112zM291 392c-79 -4 -116 -71 -116 -152c0 -78 58 -144 138 -141c73 11 108 72 108 148c0 74 -42 149 -130 145z" />
    <glyph glyph-name="seven" unicode="7" horiz-adv-x="448" 
d="M39 0l252 590h-286v110h336c43 0 71 -13 85 -44c12 -26 5 -49 -7 -79l-242 -577h-138z" />
    <glyph glyph-name="eight" unicode="8" horiz-adv-x="637" 
d="M319 711c128 0 229 -73 231 -196c1 -61 -30 -120 -94 -139c78 -21 124 -89 126 -167c-9 -149 -130 -220 -260 -220c-132 0 -267 78 -267 218c0 78 47 148 128 169c-62 16 -96 85 -95 139c2 129 110 196 231 196zM214 509c0 -57 47 -95 105 -95s105 38 105 95
c0 62 -47 95 -105 95s-105 -33 -105 -95zM184 209c0 -73 59 -113 134 -113s135 40 135 113c0 68 -60 114 -135 114s-134 -46 -134 -114z" />
    <glyph glyph-name="nine" unicode="9" horiz-adv-x="591" 
d="M78 143h16c38 -28 94 -44 143 -44c82 0 145 60 168 138c-28 -27 -81 -40 -132 -40c-58 0 -118 26 -160 66c-47 49 -72 116 -72 188c0 67 22 135 72 187c45 48 111 73 180 73c82 0 159 -41 204 -117c41 -68 51 -146 49 -224c-1 -84 -20 -170 -65 -243
c-55 -89 -140 -137 -245 -138c-61 0 -104 14 -158 42v112zM301 308c79 4 116 71 116 152c0 78 -58 144 -138 141c-73 -11 -108 -72 -108 -148c0 -74 42 -149 130 -145z" />
    <glyph glyph-name="colon" unicode=":" horiz-adv-x="324" 
d="M229 133v-133h-134v133h134zM229 524v-134h-134v134h134z" />
    <glyph glyph-name="semicolon" unicode=";" horiz-adv-x="346" 
d="M45 -162l79 295h137l-130 -295h-86zM261 524v-134h-134v134h134z" />
    <glyph glyph-name="less" unicode="&#x3c;" horiz-adv-x="569" 
d="M504 495l-321 -144l321 -145v-100l-439 198v91l439 200v-100z" />
    <glyph glyph-name="equal" unicode="=" horiz-adv-x="598" 
d="M533 396h-468v90h468v-90zM533 214h-468v90h468v-90z" />
    <glyph glyph-name="greater" unicode="&#x3e;" horiz-adv-x="569" 
d="M386 351l-321 144v100l439 -200v-91l-439 -198v100z" />
    <glyph glyph-name="question" unicode="?" horiz-adv-x="497" 
d="M241 167h-117v89c2 37 6 72 26 106c26 44 61 59 104 82c30 18 56 44 56 81c0 51 -56 69 -98 69c-49 0 -101 -18 -137 -50h-20v114c53 31 108 53 170 53c52 0 102 -15 144 -46c43 -35 68 -82 68 -138c0 -62 -30 -120 -79 -152c-28 -21 -71 -34 -94 -56
c-22 -20 -23 -49 -23 -76v-76zM245 125v-125h-125v125h125z" />
    <glyph glyph-name="at" unicode="@" horiz-adv-x="1042" 
d="M425 146c-1 -43 30 -57 68 -57c34 0 70 13 101 31v100c-39 -7 -80 -12 -117 -19c-30 -6 -52 -19 -52 -55zM916 0h-321v30c-33 -30 -78 -42 -121 -42c-92 0 -160 55 -160 151c4 71 44 130 130 144l151 25c-4 46 -73 59 -104 59c-38 0 -87 -10 -121 -28h-14v104
c46 13 88 22 137 22c102 0 206 -38 206 -156v-252h171c26 52 39 111 39 173c0 222 -134 402 -376 402s-402 -180 -402 -402c0 -220 150 -395 402 -400c55 -2 110 7 157 24l29 -63c-55 -22 -120 -31 -184 -29c-296 6 -470 210 -470 468c0 259 186 469 470 469
c283 0 442 -210 442 -469c0 -81 -20 -158 -61 -230z" />
    <glyph glyph-name="A" unicode="A" horiz-adv-x="682" 
d="M337 544l-94 -262h188zM5 0l242 646c14 38 53 62 93 62c42 0 78 -25 92 -62l245 -646h-143l-60 163h-274l-61 -163h-134z" />
    <glyph glyph-name="B" unicode="B" horiz-adv-x="671" 
d="M90 0v564c0 75 60 136 136 136h74c66 0 138 4 196 -34c54 -35 88 -90 88 -152c0 -60 -26 -122 -95 -139c80 -21 127 -73 127 -163c0 -53 -17 -99 -53 -139c-57 -63 -139 -73 -219 -73h-254zM477 220c-1 83 -71 92 -144 92h-109v-192h122c73 0 130 10 131 100zM224 545
v-121h96c55 0 127 0 127 78c0 65 -45 78 -124 78h-68c-18 0 -31 -15 -31 -35z" />
    <glyph glyph-name="C" unicode="C" horiz-adv-x="599" 
d="M387 711c68 -1 122 -14 184 -36v-128h-16c-46 25 -114 41 -168 41c-59 1 -111 -18 -151 -65c-37 -46 -52 -114 -52 -173s15 -129 54 -175c38 -43 93 -64 151 -63c53 0 121 16 167 41h18v-127c-63 -23 -117 -36 -184 -37c-88 0 -173 24 -236 86c-78 74 -109 174 -109 279
c0 88 28 181 90 252c65 73 153 105 252 105z" />
    <glyph glyph-name="D" unicode="D" horiz-adv-x="708" 
d="M225 546v-423h94c56 0 124 2 163 48c42 50 44 120 44 180c0 51 -5 116 -31 159c-34 61 -101 67 -163 67h-75c-18 0 -32 -14 -32 -31zM226 700h100c122 -1 218 -26 280 -122c44 -66 59 -147 59 -222c0 -90 -20 -180 -72 -250c-64 -83 -157 -106 -257 -106h-246v565
c0 74 61 135 136 135z" />
    <glyph glyph-name="E" unicode="E" horiz-adv-x="590" 
d="M90 0v565c0 74 60 135 135 135h350v-122h-318c-17 0 -32 -14 -32 -31v-120h259v-117h-259v-188h350v-122h-485z" />
    <glyph glyph-name="F" unicode="F" horiz-adv-x="582" 
d="M90 565c0 74 61 135 136 135h351v-122h-320c-17 0 -32 -14 -32 -31v-121h259v-121h-259v-305h-135v565z" />
    <glyph glyph-name="G" unicode="G" horiz-adv-x="690" 
d="M414 110c26 0 53 3 76 10v135h-125v120h260v-352c-77 -21 -152 -33 -230 -34c-103 0 -196 30 -264 108c-60 69 -86 161 -86 253c0 79 20 159 68 227c63 92 162 133 276 134c71 0 135 -13 201 -36v-124h-17c-51 26 -122 38 -178 38c-66 0 -129 -25 -168 -80
c-30 -43 -43 -108 -43 -160c0 -148 78 -239 230 -239z" />
    <glyph glyph-name="H" unicode="H" horiz-adv-x="752" 
d="M524 427v273h133v-700h-133v305h-294v-305h-135v700h135v-273h294z" />
    <glyph glyph-name="I" unicode="I" horiz-adv-x="325" 
d="M230 700v-700h-135v700h135z" />
    <glyph glyph-name="J" unicode="J" horiz-adv-x="340" 
d="M115 578h-78v122h213v-574c0 -153 -56 -248 -209 -248h-36v122h32c66 1 78 39 78 100v478z" />
    <glyph glyph-name="K" unicode="K" horiz-adv-x="696" 
d="M230 425v-1l263 276h174l-288 -288l322 -412h-171l-243 321l-57 -59v-262h-135v700h135v-275z" />
    <glyph glyph-name="L" unicode="L" horiz-adv-x="497" 
d="M90 137v563h135v-546c0 -17 14 -32 31 -32h236v-122h-264c-76 0 -138 62 -138 137z" />
    <glyph glyph-name="M" unicode="M" horiz-adv-x="891" 
d="M509 0h-132l-151 462l-25 -462h-121l32 618c1 48 39 89 88 90c47 1 85 -31 99 -72l148 -448l143 448c14 45 46 71 94 71c53 0 91 -35 95 -90l32 -617h-132l-20 471z" />
    <glyph glyph-name="N" unicode="N" horiz-adv-x="764" 
d="M176 708c45 0 75 -24 98 -59l273 -428v479h122v-700h-129l-323 507v-507h-122v616c0 47 31 91 81 92z" />
    <glyph glyph-name="O" unicode="O" horiz-adv-x="754" 
d="M46 350c0 219 138 361 331 361s332 -142 332 -361s-139 -361 -332 -361s-331 142 -331 361zM185 350c0 -147 75 -238 192 -238s193 91 193 238c0 132 -76 239 -193 239s-192 -92 -192 -239z" />
    <glyph glyph-name="P" unicode="P" horiz-adv-x="631" 
d="M90 0v564c0 75 61 136 136 136h93c59 -2 113 1 170 -26c73 -35 107 -116 107 -194c0 -74 -26 -144 -93 -185c-53 -33 -119 -42 -183 -42h-95v-253h-135zM225 548v-175h102c66 0 131 26 131 104c0 91 -50 104 -136 104h-80c-17 0 -17 -16 -17 -33z" />
    <glyph glyph-name="Q" unicode="Q" horiz-adv-x="752" 
d="M391 -11h-14c-193 0 -331 142 -331 361s138 361 331 361s332 -142 332 -361c0 -165 -80 -287 -202 -337c17 -26 36 -50 51 -51c23 0 57 37 70 50l70 -82c-39 -37 -79 -79 -138 -79c-78 -2 -132 73 -169 138zM185 350c0 -147 75 -238 192 -238s193 91 193 238
c0 132 -76 239 -193 239s-192 -92 -192 -239z" />
    <glyph glyph-name="R" unicode="R" horiz-adv-x="670" 
d="M457 273l195 -273h-164l-175 253h-88v-253h-135v564c0 75 62 136 138 136h91c60 -2 115 1 171 -26c72 -35 107 -116 107 -194c-1 -74 -27 -144 -92 -185c-15 -9 -30 -17 -48 -22zM225 548v-175h104c64 0 130 25 130 102c0 80 -41 106 -136 106h-67c-17 0 -31 -16 -31 -33
z" />
    <glyph glyph-name="S" unicode="S" horiz-adv-x="556" 
d="M290 432c53 -17 108 -33 156 -65c55 -39 79 -102 79 -164c0 -59 -27 -113 -69 -148c-60 -50 -139 -66 -214 -66c-72 0 -140 14 -208 36v123h16c55 -19 122 -37 193 -37c54 0 152 15 151 90c-1 48 -47 72 -90 85c-53 16 -108 31 -159 55c-72 36 -114 102 -114 178
c0 55 29 105 68 139c45 37 104 52 162 53c76 0 144 -13 218 -34v-122h-18c-49 19 -132 34 -192 34c-42 0 -107 -15 -107 -67s82 -73 128 -90z" />
    <glyph glyph-name="T" unicode="T" horiz-adv-x="530" 
d="M196 578h-191v122h520v-122h-194v-578h-135v578z" />
    <glyph glyph-name="U" unicode="U" horiz-adv-x="717" 
d="M510 261v439h122v-397c0 -82 -4 -152 -53 -217c-53 -70 -141 -97 -221 -97c-93 0 -182 38 -230 112c-39 60 -43 133 -43 202v397h135v-438c0 -37 4 -76 26 -107c28 -34 78 -44 118 -44c46 0 91 14 120 52c20 29 26 63 26 98z" />
    <glyph glyph-name="V" unicode="V" horiz-adv-x="640" 
d="M325 169l180 531h130l-224 -643c-14 -39 -47 -64 -88 -65c-42 0 -78 26 -94 65l-224 643h144z" />
    <glyph glyph-name="W" unicode="W" horiz-adv-x="892" 
d="M517 700l117 -484l121 484h127l-165 -640c-10 -39 -45 -71 -88 -69c-42 1 -76 32 -86 72l-98 402l-92 -405c-9 -38 -42 -68 -84 -69c-45 -2 -82 30 -93 72l-166 637h138l119 -479l113 479h137z" />
    <glyph glyph-name="X" unicode="X" horiz-adv-x="669" 
d="M615 700l-203 -314l252 -386h-160l-175 282l-176 -282h-148l253 389l-203 311h158l126 -207l130 207h146z" />
    <glyph glyph-name="Y" unicode="Y" horiz-adv-x="600" 
d="M456 700h-1h140l-227 -432v-268h-135v268l-228 432h152l149 -305z" />
    <glyph glyph-name="Z" unicode="Z" horiz-adv-x="554" 
d="M49 700h369c39 0 85 -16 102 -55c13 -31 10 -63 -8 -97l-300 -426h316v-122h-503v86l345 492h-321v122z" />
    <glyph glyph-name="bracketleft" unicode="[" horiz-adv-x="363" 
d="M215 -136h133v-104h-253v940h253v-104h-133v-732z" />
    <glyph glyph-name="backslash" unicode="\" horiz-adv-x="295" 
d="M290 -13h-74l-211 728h76z" />
    <glyph glyph-name="bracketright" unicode="]" horiz-adv-x="363" 
d="M15 -136h133v732h-133v104h253v-940h-253v104z" />
    <glyph glyph-name="asciicircum" unicode="^" horiz-adv-x="551" 
d="M486 368h-100l-111 244l-110 -244h-100l165 362h91z" />
    <glyph glyph-name="underscore" unicode="_" horiz-adv-x="629" 
d="M634 -225h-639v90h639v-90z" />
    <glyph glyph-name="grave" unicode="`" horiz-adv-x="318" 
d="M176 562l-111 150h101l87 -150h-77z" />
    <glyph glyph-name="a" unicode="a" horiz-adv-x="563" 
d="M169 167c0 -49 37 -67 79 -67c40 0 80 16 113 36v118c-43 -8 -87 -12 -131 -21c-35 -7 -61 -26 -61 -66zM366 0v48c-37 -39 -90 -60 -141 -60c-104 0 -181 70 -184 172c-2 96 70 159 151 170l172 25c-4 51 -84 69 -119 69c-45 0 -100 -12 -139 -31h-14v116
c50 14 100 26 155 26c120 0 237 -45 241 -177v-358h-122z" />
    <glyph glyph-name="b" unicode="b" 
d="M202 131c0 -16 14 -29 30 -29h42c34 0 74 6 100 32c32 33 36 93 36 136c1 35 -5 74 -23 104c-22 35 -57 46 -96 48c-31 0 -59 -6 -89 -13v-278zM286 -11h-85c-70 0 -126 57 -126 127v617h127v-224c33 21 66 26 101 26c73 0 138 -29 183 -81c42 -54 53 -117 55 -184
c0 -58 -10 -118 -39 -169c-47 -78 -124 -110 -216 -112z" />
    <glyph glyph-name="c" unicode="c" horiz-adv-x="486" 
d="M455 387h-16c-33 26 -92 35 -137 35c-48 0 -81 -17 -101 -44c-22 -30 -30 -72 -30 -117c0 -35 7 -68 22 -95c21 -38 56 -64 107 -64c47 0 103 9 141 30h15v-108c-53 -26 -105 -35 -158 -35c-86 0 -163 43 -209 108c-32 45 -49 101 -49 165c0 77 24 145 67 193
c44 50 108 80 187 80c58 0 107 -13 161 -35v-113z" />
    <glyph glyph-name="d" unicode="d" 
d="M379 131v278c-30 7 -58 13 -89 13c-39 -2 -74 -13 -96 -48c-18 -30 -24 -69 -23 -104c0 -43 4 -103 36 -136c26 -26 66 -32 100 -32h42c16 0 30 13 30 29zM380 -11h-85c-92 2 -169 34 -216 112c-29 51 -40 111 -40 169c2 67 14 130 56 184c45 52 110 81 183 81
c35 0 68 -5 101 -26v224h127v-617c0 -70 -56 -127 -126 -127z" />
    <glyph glyph-name="e" unicode="e" horiz-adv-x="570" 
d="M287 425c-66 0 -104 -48 -110 -108h213c-6 66 -39 107 -103 108zM176 212c13 -83 89 -117 162 -115c45 1 96 8 138 33h16v-119c-57 -17 -105 -22 -164 -22c-74 0 -152 19 -208 70c-57 52 -80 123 -80 200c2 65 19 132 58 186c45 59 112 90 187 90c95 0 171 -44 208 -132
c26 -64 28 -127 26 -191h-343z" />
    <glyph glyph-name="f" unicode="f" horiz-adv-x="344" 
d="M198 524h133v-110h-133v-414h-127v414h-56v110h56v15c0 128 55 194 181 194c40 0 68 -10 107 -19v-112h-17c-22 12 -47 20 -77 19c-35 0 -67 -20 -67 -65v-32z" />
    <glyph glyph-name="g" unicode="g" horiz-adv-x="586" 
d="M384 391c0 18 -14 31 -30 31h-45c-35 0 -72 -7 -100 -34c-34 -33 -37 -90 -38 -135c0 -35 6 -78 26 -107c22 -35 56 -47 95 -47c30 0 62 4 92 12v280zM511 407v-381c0 -186 -93 -265 -269 -266c-56 0 -102 14 -154 33v110h16c39 -19 94 -29 139 -31c77 0 141 45 141 112
v30c-29 -17 -63 -25 -101 -25c-69 0 -138 26 -187 81c-42 53 -56 116 -56 183c0 58 10 119 40 170c47 79 129 111 221 112h81c70 0 129 -58 129 -128z" />
    <glyph glyph-name="h" unicode="h" horiz-adv-x="618" 
d="M207 733v-242c45 25 98 44 151 44c106 0 185 -81 185 -194v-341h-127v330c0 51 -23 91 -79 91c-42 0 -95 -18 -130 -41v-380h-127v733h127z" />
    <glyph glyph-name="i" unicode="i" horiz-adv-x="288" 
d="M207 524v-524h-127v524h127zM208 700v-125h-128v125h128z" />
    <glyph glyph-name="j" unicode="j" horiz-adv-x="298" 
d="M91 414v-440c0 -76 -31 -101 -106 -101v-113c158 0 233 70 233 235v529h-192v-110h65zM217 700v-125h-128v125h128z" />
    <glyph glyph-name="k" unicode="k" horiz-adv-x="587" 
d="M207 210v-210h-127v733h127v-377l186 168h178l-227 -196l238 -328h-157l-177 245z" />
    <glyph glyph-name="l" unicode="l" horiz-adv-x="353" 
d="M202 732v-569c0 -45 31 -62 69 -62c27 -1 52 11 76 23h16v-112c-38 -13 -66 -23 -107 -23c-124 0 -181 72 -181 196v547h127z" />
    <glyph glyph-name="m" unicode="m" horiz-adv-x="821" 
d="M619 0v321c0 41 -5 97 -60 95c-33 -1 -61 -28 -82 -51v-365h-125v321c0 40 -4 95 -57 95c-31 0 -66 -22 -88 -42v-374h-127v524h124v-35c25 25 65 46 101 46c54 1 99 -21 131 -60c35 32 81 61 132 61c110 0 177 -86 178 -197v-339h-127z" />
    <glyph glyph-name="n" unicode="n" horiz-adv-x="618" 
d="M356 535c110 0 187 -78 187 -195v-340h-127v327c1 50 -23 91 -79 91c-42 0 -95 -19 -130 -43v-375h-127v524h123v-34c48 24 101 45 153 45z" />
    <glyph glyph-name="o" unicode="o" 
d="M40 262c0 166 102 273 251 273c148 0 249 -107 249 -273s-100 -273 -249 -273s-251 107 -251 273zM171 262c0 -98 48 -160 119 -160c72 0 119 62 119 160s-48 160 -119 160s-119 -62 -119 -160z" />
    <glyph glyph-name="p" unicode="p" horiz-adv-x="586" 
d="M207 392v-278c30 -7 58 -13 89 -13c39 2 74 13 96 48c18 30 24 69 23 104c0 43 -4 103 -36 136c-26 26 -66 32 -100 32h-42c-16 0 -30 -13 -30 -29zM206 534h85c92 -2 169 -34 216 -112c29 -51 39 -111 39 -169c-2 -67 -13 -130 -55 -184c-45 -52 -110 -81 -183 -81
c-35 0 -68 5 -101 26v-254h-127v647c0 70 56 127 126 127z" />
    <glyph glyph-name="q" unicode="q" 
d="M379 114v278c0 16 -14 29 -30 29h-42c-34 0 -74 -6 -100 -32c-32 -33 -36 -93 -36 -136c-1 -35 5 -74 23 -104c22 -35 57 -46 96 -48c31 0 59 6 89 13zM295 534h85c70 0 126 -57 126 -127v-647h-127v254c-33 -21 -66 -26 -101 -26c-73 0 -138 29 -183 81
c-42 54 -53 117 -55 184c0 58 10 118 39 169c47 78 124 110 216 112z" />
    <glyph glyph-name="r" unicode="r" horiz-adv-x="359" 
d="M374 535v-120h-17c-44 18 -110 -1 -150 -26v-389h-127v524h123v-34c53 27 110 45 171 45z" />
    <glyph glyph-name="s" unicode="s" horiz-adv-x="464" 
d="M203 -11c-56 0 -106 10 -158 26v112h16c41 -17 104 -28 147 -28c36 1 96 7 96 56c0 27 -39 40 -63 49c-45 17 -88 30 -127 50c-49 25 -74 79 -74 131c0 100 93 151 180 150c64 -1 107 -12 161 -28v-107h-17c-36 14 -88 24 -128 24c-20 0 -76 -4 -76 -34
c0 -16 29 -32 51 -39c43 -16 94 -30 134 -51c59 -29 79 -86 79 -139c0 -120 -111 -172 -221 -172z" />
    <glyph glyph-name="t" unicode="t" horiz-adv-x="349" 
d="M189 414v-247c0 -45 31 -65 69 -65c27 -1 52 11 76 21h20v-111c-38 -13 -70 -23 -111 -23c-124 0 -181 70 -181 194v231h-57v110h57v123h127v-123h134v-110h-134z" />
    <glyph glyph-name="u" unicode="u" horiz-adv-x="585" 
d="M243 -12c-110 0 -187 85 -187 195v341h127v-328c-1 -50 23 -91 79 -91c42 0 95 19 130 43v376h127v-524h-123v33c-48 -24 -101 -45 -153 -45z" />
    <glyph glyph-name="v" unicode="v" horiz-adv-x="517" 
d="M265 153l127 371h120l-172 -477c-14 -35 -43 -56 -80 -57c-39 0 -71 20 -84 55l-171 479h136z" />
    <glyph glyph-name="w" unicode="w" horiz-adv-x="755" 
d="M516 -10c-38 1 -73 20 -83 58l-57 229l-56 -227c-10 -37 -43 -59 -80 -60c-38 0 -76 22 -86 58l-144 476h128l103 -355l92 355h91l98 -367l104 367h119l-146 -476c-12 -38 -44 -58 -83 -58z" />
    <glyph glyph-name="x" unicode="x" horiz-adv-x="558" 
d="M204 283l-170 241h155l99 -154l102 154h137l-172 -245l198 -279h-155l-126 194l-128 -194h-139z" />
    <glyph glyph-name="y" unicode="y" horiz-adv-x="554" 
d="M293 172l128 352h118l-231 -637c-39 -101 -109 -127 -229 -127h-23v110c96 -1 128 0 153 69l24 66l-228 519h139z" />
    <glyph glyph-name="z" unicode="z" horiz-adv-x="469" 
d="M434 490c15 -24 9 -58 -9 -82l-216 -298h235v-110h-419v72l251 342h-239v110h324c32 0 58 -9 73 -34z" />
    <glyph glyph-name="braceleft" unicode="{" horiz-adv-x="424" 
d="M93 178h-78v104h78c35 0 53 18 53 51v218c2 40 9 78 39 107c37 36 86 42 133 42h81v-104h-78c-14 0 -29 -2 -39 -10c-11 -10 -13 -25 -14 -39v-220c0 -36 -26 -81 -57 -97c34 -20 57 -58 57 -97v-217c0 -15 1 -28 11 -38c10 -11 26 -14 42 -16h78v-102h-81
c-52 0 -108 8 -143 53c-21 28 -27 61 -29 95v218c0 36 -15 52 -53 52z" />
    <glyph glyph-name="bar" unicode="|" horiz-adv-x="273" 
d="M178 -240h-83v974h83v-974z" />
    <glyph glyph-name="braceright" unicode="}" horiz-adv-x="424" 
d="M409 178h-78c-38 0 -53 -16 -53 -52v-218c-2 -34 -8 -67 -29 -95c-35 -45 -91 -53 -143 -53h-81v102h78c16 2 32 5 42 16c10 10 11 23 11 38v217c0 39 23 77 57 97c-31 16 -57 61 -57 97v220c-1 14 -3 29 -14 39c-10 8 -25 10 -39 10h-78v104h81c47 0 96 -6 133 -42
c30 -29 37 -67 39 -107v-218c0 -33 18 -51 53 -51h78v-104z" />
    <glyph glyph-name="asciitilde" unicode="~" horiz-adv-x="636" 
d="M65 263v100c40 45 88 66 140 66c55 0 100 -20 146 -39c45 -17 74 -26 91 -26c50 0 99 37 129 70v-107c-39 -37 -89 -62 -142 -62c-45 0 -82 17 -118 32c-50 21 -89 33 -116 33c-45 0 -88 -23 -130 -67z" />
    <glyph glyph-name="currency" unicode="&#xa4;" horiz-adv-x="642" 
d="M577 167l-64 -63l-75 72c-71 -46 -163 -46 -234 0l-74 -72l-65 63l75 74c-47 71 -47 163 0 236l-75 73l65 64l74 -74c71 47 163 47 234 0l75 74l64 -64l-74 -73c46 -73 46 -165 0 -236zM230 267c51 -52 133 -52 183 0c51 51 51 132 0 184c-50 52 -132 52 -183 0
s-51 -133 0 -184z" />
    <glyph glyph-name="section" unicode="&#xa7;" horiz-adv-x="537" 
d="M325 279c-46 29 -105 39 -156 64c-15 -38 3 -77 37 -97c52 -32 108 -47 161 -68c12 41 -5 80 -42 101zM232 -240c-64 0 -126 15 -187 36v120h20c51 -21 112 -43 165 -43c65 -1 140 34 140 109c0 42 -23 66 -59 82c-55 26 -116 39 -169 71c-59 38 -95 97 -97 169
c0 39 12 77 36 107v1c-24 34 -36 81 -36 122c2 123 99 200 218 200c73 -1 123 -12 190 -36v-116h-22c-48 22 -98 38 -152 38c-46 0 -114 -26 -114 -79c-1 -52 29 -69 71 -88c59 -28 126 -41 178 -81c52 -39 78 -94 78 -158c0 -41 -10 -76 -35 -108c22 -33 35 -77 35 -119
c0 -156 -120 -227 -260 -227z" />
    <glyph glyph-name="dieresis" unicode="&#xa8;" horiz-adv-x="372" 
d="M45 582v110h108v-110h-108zM217 582v110h110v-110h-110z" />
    <glyph glyph-name="Scaron" unicode="&#x160;" horiz-adv-x="556" 
d="M290 432c53 -17 108 -33 156 -65c55 -39 79 -102 79 -164c0 -59 -27 -113 -69 -148c-60 -50 -139 -66 -214 -66c-72 0 -140 14 -208 36v123h16c55 -19 122 -37 193 -37c54 0 152 15 151 90c-1 48 -47 72 -90 85c-53 16 -108 31 -159 55c-72 36 -114 102 -114 178
c0 55 29 105 68 139c45 37 104 52 162 53c76 0 144 -13 218 -34v-122h-18c-49 19 -132 34 -192 34c-42 0 -107 -15 -107 -67s82 -73 128 -90zM415 888l-87 -150h-100l-88 150h75l62 -82l61 82h77z" />
    <glyph glyph-name="Zcaron" unicode="&#x17d;" horiz-adv-x="554" 
d="M49 700h369c39 0 85 -16 102 -55c13 -31 10 -63 -8 -97l-300 -426h316v-122h-503v86l345 492h-321v122zM414 888l-87 -150h-100l-88 150h75l62 -82l61 82h77z" />
    <glyph glyph-name="degree" unicode="&#xb0;" horiz-adv-x="497" 
d="M65 523c0 102 81 184 183 184s184 -82 184 -184s-82 -183 -184 -183s-183 81 -183 183zM144 523c0 -59 45 -104 104 -104c60 0 105 45 105 104c0 60 -45 105 -105 105c-59 0 -104 -45 -104 -105z" />
    <glyph glyph-name="acute" unicode="&#xb4;" horiz-adv-x="279" 
d="M234 712l-113 -150h-76l86 150h103z" />
    <glyph glyph-name="cedilla" unicode="&#xb8;" horiz-adv-x="375" 
d="M143 45l70 -13l-11 -61c56 -9 104 -35 108 -98c0 -75 -61 -113 -126 -113c-38 0 -81 13 -119 39l44 59c23 -16 50 -25 73 -25c28 0 50 9 50 38c0 39 -74 54 -111 50z" />
    <glyph glyph-name="scaron" unicode="&#x161;" horiz-adv-x="464" 
d="M203 -11c-56 0 -106 10 -158 26v112h16c41 -17 104 -28 147 -28c36 1 96 7 96 56c0 27 -39 40 -63 49c-45 17 -88 30 -127 50c-49 25 -74 79 -74 131c0 100 93 151 180 150c64 -1 107 -12 161 -28v-107h-17c-36 14 -88 24 -128 24c-20 0 -76 -4 -76 -34
c0 -16 29 -32 51 -39c43 -16 94 -30 134 -51c59 -29 79 -86 79 -139c0 -120 -111 -172 -221 -172zM369 712l-87 -150h-100l-88 150h75l62 -82l61 82h77z" />
    <glyph glyph-name="zcaron" unicode="&#x17e;" horiz-adv-x="469" 
d="M434 490c15 -24 9 -58 -9 -82l-216 -298h235v-110h-419v72l251 342h-239v110h324c32 0 58 -9 73 -34zM372 712l-87 -150h-100l-88 150h75l62 -82l61 82h77z" />
    <glyph glyph-name="Aacute" unicode="&#xc1;" horiz-adv-x="682" 
d="M331 544l-94 -262h188zM-1 0l242 646c14 38 53 62 93 62c42 0 78 -25 92 -62l245 -646h-143l-60 163h-274l-61 -163h-134zM435 888l-113 -150h-76l86 150h103z" />
    <glyph glyph-name="Acircumflex" unicode="&#xc2;" horiz-adv-x="682" 
d="M331 544l-94 -262h188zM-1 0l242 646c14 38 53 62 93 62c42 0 78 -25 92 -62l245 -646h-143l-60 163h-274l-61 -163h-134zM203 739l88 150h100l87 -150h-77l-61 81l-60 -81h-77z" />
    <glyph glyph-name="Adieresis" unicode="&#xc4;" horiz-adv-x="682" 
d="M331 544l-94 -262h188zM-1 0l242 646c14 38 53 62 93 62c42 0 78 -25 92 -62l245 -646h-143l-60 163h-274l-61 -163h-134zM200 758v110h108v-110h-108zM372 758v110h110v-110h-110z" />
    <glyph glyph-name="Ccedilla" unicode="&#xc7;" horiz-adv-x="599" 
d="M387 711c68 -1 122 -14 184 -36v-128h-16c-46 25 -114 41 -168 41c-59 1 -111 -18 -151 -65c-37 -46 -52 -114 -52 -173s15 -129 54 -175c38 -43 93 -64 151 -63c53 0 121 16 167 41h18v-127c-63 -23 -117 -36 -184 -37c-88 0 -173 24 -236 86c-78 74 -109 174 -109 279
c0 88 28 181 90 252c65 73 153 105 252 105zM367 45l70 -13l-11 -61c56 -9 104 -35 108 -98c0 -75 -61 -113 -126 -113c-38 0 -81 13 -119 39l44 59c23 -16 50 -25 73 -25c28 0 50 9 50 38c0 39 -74 54 -111 50z" />
    <glyph glyph-name="Eacute" unicode="&#xc9;" horiz-adv-x="590" 
d="M90 565v-565h485v122h-350v188h259v117h-259v120c0 17 15 31 32 31h318v122h-350c-75 0 -135 -61 -135 -135zM498 888l-113 -150h-76l86 150h103z" />
    <glyph glyph-name="Edieresis" unicode="&#xcb;" horiz-adv-x="590" 
d="M90 0v565c0 74 60 135 135 135h350v-122h-318c-17 0 -32 -14 -32 -31v-120h259v-117h-259v-188h350v-122h-485zM224 758v110h108v-110h-108zM396 758v110h110v-110h-110z" />
    <glyph glyph-name="Iacute" unicode="&#xcd;" horiz-adv-x="325" 
d="M230 0v700h-135v-700h135zM257 888l-113 -150h-76l86 150h103z" />
    <glyph glyph-name="Icircumflex" unicode="&#xce;" horiz-adv-x="325" 
d="M230 700v-700h-135v700h135zM25 739l88 150h100l87 -150h-77l-61 81l-60 -81h-77z" />
    <glyph glyph-name="Oacute" unicode="&#xd3;" horiz-adv-x="754" 
d="M46 350c0 219 138 361 331 361s332 -142 332 -361s-139 -361 -332 -361s-331 142 -331 361zM185 350c0 -147 75 -238 192 -238s193 91 193 238c0 132 -76 239 -193 239s-192 -92 -192 -239zM510 888l-113 -150h-76l86 150h103z" />
    <glyph glyph-name="Ocircumflex" unicode="&#xd4;" horiz-adv-x="754" 
d="M46 350c0 219 138 361 331 361s332 -142 332 -361s-139 -361 -332 -361s-331 142 -331 361zM185 350c0 -147 75 -238 192 -238s193 91 193 238c0 132 -76 239 -193 239s-192 -92 -192 -239zM239 739l88 150h100l87 -150h-77l-61 81l-60 -81h-77z" />
    <glyph glyph-name="Odieresis" unicode="&#xd6;" horiz-adv-x="754" 
d="M46 350c0 219 138 361 331 361s332 -142 332 -361s-139 -361 -332 -361s-331 142 -331 361zM185 350c0 -147 75 -238 192 -238s193 91 193 238c0 132 -76 239 -193 239s-192 -92 -192 -239zM236 758v110h108v-110h-108zM408 758v110h110v-110h-110z" />
    <glyph glyph-name="multiply" unicode="&#xd7;" horiz-adv-x="591" 
d="M506 199l-63 -63l-147 147l-147 -147l-64 65l147 146l-147 146l63 63l146 -146l147 146l64 -64l-146 -146z" />
    <glyph glyph-name="Uacute" unicode="&#xda;" horiz-adv-x="717" 
d="M510 700v-439c0 -35 -6 -69 -26 -98c-29 -38 -74 -52 -120 -52c-40 0 -90 10 -118 44c-22 31 -26 70 -26 107v438h-135v-397c0 -69 4 -142 43 -202c48 -74 137 -112 230 -112c80 0 168 27 221 97c49 65 53 135 53 217v397h-122zM479 888l-113 -150h-76l86 150h103z" />
    <glyph glyph-name="Udieresis" unicode="&#xdc;" horiz-adv-x="717" 
d="M510 261v439h122v-397c0 -82 -4 -152 -53 -217c-53 -70 -141 -97 -221 -97c-93 0 -182 38 -230 112c-39 60 -43 133 -43 202v397h135v-438c0 -37 4 -76 26 -107c28 -34 78 -44 118 -44c46 0 91 14 120 52c20 29 26 63 26 98zM217 758v110h108v-110h-108zM389 758v110h110
v-110h-110z" />
    <glyph glyph-name="Yacute" unicode="&#xdd;" horiz-adv-x="600" 
d="M456 700h-1h140l-227 -432v-268h-135v268l-228 432h152l149 -305zM394 888l-113 -150h-76l86 150h103z" />
    <glyph glyph-name="germandbls" unicode="&#xdf;" horiz-adv-x="570" 
d="M269 446c52 1 104 18 104 92c-1 43 -20 82 -82 83c-52 1 -87 -42 -89 -97v-524h-127v532c2 55 20 114 62 151c41 36 104 52 158 51c108 1 210 -64 210 -194c0 -65 -47 -128 -97 -143c85 -28 122 -101 122 -187c0 -126 -109 -222 -232 -222c-20 0 -42 2 -62 8v110h20
c13 -5 22 -6 35 -6c68 2 108 51 108 120c1 75 -66 111 -129 114h-11v112h10z" />
    <glyph glyph-name="aacute" unicode="&#xe1;" horiz-adv-x="563" 
d="M169 167c0 40 26 59 61 66c44 9 88 13 131 21v-118c-33 -20 -73 -36 -113 -36c-42 0 -79 18 -79 67zM366 48v-48h122v358c-4 132 -121 177 -241 177c-55 0 -105 -12 -155 -26v-116h14c39 19 94 31 139 31c35 0 115 -18 119 -69l-172 -25c-81 -11 -153 -74 -151 -170
c3 -102 80 -172 184 -172c51 0 104 21 141 60zM376 712l-113 -150h-76l86 150h103z" />
    <glyph glyph-name="acircumflex" unicode="&#xe2;" horiz-adv-x="563" 
d="M169 167c0 -49 37 -67 79 -67c40 0 80 16 113 36v118c-43 -8 -87 -12 -131 -21c-35 -7 -61 -26 -61 -66zM366 0v48c-37 -39 -90 -60 -141 -60c-104 0 -181 70 -184 172c-2 96 70 159 151 170l172 25c-4 51 -84 69 -119 69c-45 0 -100 -12 -139 -31h-14v116
c50 14 100 26 155 26c120 0 237 -45 241 -177v-358h-122zM144 563l88 150h100l87 -150h-77l-61 81l-60 -81h-77z" />
    <glyph glyph-name="adieresis" unicode="&#xe4;" horiz-adv-x="563" 
d="M169 167c0 -49 37 -67 79 -67c40 0 80 16 113 36v118c-43 -8 -87 -12 -131 -21c-35 -7 -61 -26 -61 -66zM366 0v48c-37 -39 -90 -60 -141 -60c-104 0 -181 70 -184 172c-2 96 70 159 151 170l172 25c-4 51 -84 69 -119 69c-45 0 -100 -12 -139 -31h-14v116
c50 14 100 26 155 26c120 0 237 -45 241 -177v-358h-122zM140 582v110h108v-110h-108zM312 582v110h110v-110h-110z" />
    <glyph glyph-name="ccedilla" unicode="&#xe7;" horiz-adv-x="486" 
d="M455 387h-16c-33 26 -92 35 -137 35c-48 0 -81 -17 -101 -44c-22 -30 -30 -72 -30 -117c0 -35 7 -68 22 -95c21 -38 56 -64 107 -64c47 0 103 9 141 30h15v-108c-53 -26 -105 -35 -158 -35c-86 0 -163 43 -209 108c-32 45 -49 101 -49 165c0 77 24 145 67 193
c44 50 108 80 187 80c58 0 107 -13 161 -35v-113zM282 45l70 -13l-11 -61c56 -9 104 -35 108 -98c0 -75 -61 -113 -126 -113c-38 0 -81 13 -119 39l44 59c23 -16 50 -25 73 -25c28 0 50 9 50 38c0 39 -74 54 -111 50z" />
    <glyph glyph-name="eacute" unicode="&#xe9;" horiz-adv-x="570" 
d="M287 425c-66 0 -104 -48 -110 -108h213c-6 66 -39 107 -103 108zM176 212c13 -83 89 -117 162 -115c45 1 96 8 138 33h16v-119c-57 -17 -105 -22 -164 -22c-74 0 -152 19 -208 70c-57 52 -80 123 -80 200c2 65 19 132 58 186c45 59 112 90 187 90c95 0 171 -44 208 -132
c26 -64 28 -127 26 -191h-343zM403 712l-113 -150h-76l86 150h103z" />
    <glyph glyph-name="edieresis" unicode="&#xeb;" horiz-adv-x="570" 
d="M287 425c-66 0 -104 -48 -110 -108h213c-6 66 -39 107 -103 108zM176 212c13 -83 89 -117 162 -115c45 1 96 8 138 33h16v-119c-57 -17 -105 -22 -164 -22c-74 0 -152 19 -208 70c-57 52 -80 123 -80 200c2 65 19 132 58 186c45 59 112 90 187 90c95 0 171 -44 208 -132
c26 -64 28 -127 26 -191h-343zM144 582v110h108v-110h-108zM316 582v110h110v-110h-110z" />
    <glyph glyph-name="iacute" unicode="&#xed;" horiz-adv-x="287" 
d="M207 524v-524h-127v524h127zM238 712l-113 -150h-76l86 150h103z" />
    <glyph glyph-name="icircumflex" unicode="&#xee;" horiz-adv-x="287" 
d="M207 524v-524h-127v524h127zM6 563l88 150h100l87 -150h-77l-61 81l-60 -81h-77z" />
    <glyph glyph-name="oacute" unicode="&#xf3;" 
d="M40 262c0 166 102 273 251 273c148 0 249 -107 249 -273s-100 -273 -249 -273s-251 107 -251 273zM171 262c0 -98 48 -160 119 -160c72 0 119 62 119 160s-48 160 -119 160s-119 -62 -119 -160zM385 712l-113 -150h-76l86 150h103z" />
    <glyph glyph-name="ocircumflex" unicode="&#xf4;" 
d="M40 262c0 166 102 273 251 273c148 0 249 -107 249 -273s-100 -273 -249 -273s-251 107 -251 273zM171 262c0 -98 48 -160 119 -160c72 0 119 62 119 160s-48 160 -119 160s-119 -62 -119 -160zM153 563l88 150h100l87 -150h-77l-61 81l-60 -81h-77z" />
    <glyph glyph-name="odieresis" unicode="&#xf6;" 
d="M40 262c0 166 102 273 251 273c148 0 249 -107 249 -273s-100 -273 -249 -273s-251 107 -251 273zM171 262c0 -98 48 -160 119 -160c72 0 119 62 119 160s-48 160 -119 160s-119 -62 -119 -160zM149 582v110h108v-110h-108zM321 582v110h110v-110h-110z" />
    <glyph glyph-name="divide" unicode="&#xf7;" horiz-adv-x="597" 
d="M365 134v-134h-133v134h133zM365 524v-132h-133v132h133zM532 217h-467v89h467v-89z" />
    <glyph glyph-name="rcaron" unicode="&#x159;" horiz-adv-x="359" 
d="M374 535v-120h-17c-44 18 -110 -1 -150 -26v-389h-127v524h123v-34c53 27 110 45 171 45zM317 712l-87 -150h-100l-88 150h75l62 -82l61 82h77z" />
    <glyph glyph-name="uacute" unicode="&#xfa;" horiz-adv-x="585" 
d="M243 -12c-110 0 -187 85 -187 195v341h127v-328c-1 -50 23 -91 79 -91c42 0 95 19 130 43v376h127v-524h-123v33c-48 -24 -101 -45 -153 -45zM387 712l-113 -150h-76l86 150h103z" />
    <glyph glyph-name="udieresis" unicode="&#xfc;" horiz-adv-x="585" 
d="M243 -12c-110 0 -187 85 -187 195v341h127v-328c-1 -50 23 -91 79 -91c42 0 95 19 130 43v376h127v-524h-123v33c-48 -24 -101 -45 -153 -45zM151 582v110h108v-110h-108zM323 582v110h110v-110h-110z" />
    <glyph glyph-name="yacute" unicode="&#xfd;" horiz-adv-x="554" 
d="M293 172l128 352h118l-231 -637c-39 -101 -109 -127 -229 -127h-23v110c96 -1 128 0 153 69l24 66l-228 519h139zM371 712l-113 -150h-76l86 150h103z" />
    <glyph glyph-name="AE" unicode="&#xc6;" horiz-adv-x="917" 
d="M444 570h-3l-169 -301h172v301zM449 700h453v-125h-292c-17 0 -31 -14 -31 -31v-117h231v-117h-231v-185h323v-125h-458v149h-238l-84 -149h-147l346 625c25 44 73 75 128 75z" />
    <glyph glyph-name="OE" unicode="&#x152;" horiz-adv-x="990" 
d="M672 700h303v-125h-291c-18 0 -32 -14 -32 -31v-117h232v-117h-232v-186h323v-124h-456v51c-46 -42 -110 -62 -172 -62c-81 1 -160 36 -213 97c-62 72 -89 168 -88 260c-1 97 20 180 76 254c54 71 145 111 225 111c72 0 149 -26 195 -82c26 49 58 71 130 71zM353 112
c131 6 166 136 166 244c-6 111 -44 234 -169 232c-127 0 -165 -146 -165 -245c0 -107 51 -231 168 -231z" />
    <glyph glyph-name="Thorn" unicode="&#xde;" horiz-adv-x="618" 
d="M227 0h-132v700h132v-126h79c60 -4 112 0 169 -27c72 -37 108 -116 107 -194c0 -75 -27 -143 -92 -185c-56 -35 -119 -41 -182 -41h-81v-127zM227 454v-208h89c27 0 55 3 79 16c39 17 51 53 49 95c0 29 -10 64 -34 80c-28 20 -70 17 -102 17h-81z" />
    <glyph glyph-name="yen" unicode="&#xa5;" horiz-adv-x="600" 
d="M145 435l-140 265h152l149 -305l150 305h-1h140l-139 -265h96v-78h-137l-32 -59h169v-78h-184v-220h-135v220h-185v78h169l-31 59h-138v78h97z" />
    <glyph glyph-name="tilde" unicode="&#x2dc;" horiz-adv-x="452" 
d="M110 585l-65 35c28 48 65 78 118 79c28 0 52 -8 77 -21c17 -12 31 -25 55 -25c26 0 36 17 47 38l65 -35c-26 -48 -59 -79 -117 -79c-24 0 -49 7 -72 18c-20 12 -35 26 -59 26c-26 0 -36 -16 -49 -36z" />
    <glyph glyph-name="circumflex" unicode="&#x2c6;" horiz-adv-x="365" 
d="M45 563l88 150h100l87 -150h-77l-61 81l-60 -81h-77z" />
    <glyph glyph-name="Euro" unicode="&#x20ac;" horiz-adv-x="624" 
d="M423 -11c-97 0 -185 44 -236 122c-27 41 -43 86 -53 132h-94l16 77h68c0 41 0 52 1 62h-58l15 78h52c10 43 24 85 49 123c52 83 133 128 227 128c68 0 133 -16 189 -46l-23 -116h-20c-39 27 -86 39 -132 39c-81 0 -130 -61 -150 -128h286l-16 -78h-282
c-2 -21 -3 -42 0 -62h270l-14 -77h-244c21 -73 72 -131 149 -131c56 0 102 16 137 45h22v-129c-52 -26 -100 -39 -159 -39z" />
    <glyph glyph-name="daggerdbl" unicode="&#x2021;" horiz-adv-x="569" 
d="M45 -7v94h196v343h-196v94h196v176h100v-176h183v-94h-183v-343h183v-94h-183v-233h-100v233h-196z" />
    <glyph glyph-name="guilsinglleft" unicode="&#x2039;" horiz-adv-x="408" 
d="M343 499l-162 -238l162 -239h-103l-175 239l175 238h103z" />
    <glyph glyph-name="thorn" unicode="&#xfe;" horiz-adv-x="576" 
d="M200 401v-281c30 -7 60 -12 92 -12c39 0 72 12 95 46c20 33 23 72 23 108s-3 74 -23 106c-23 33 -56 46 -95 46c-32 0 -62 -6 -92 -13zM481 449c42 -52 54 -117 54 -180c0 -69 -11 -141 -54 -196c-42 -52 -107 -79 -174 -82c-41 0 -78 9 -107 26v-251h-120v965h120v-226
c29 17 66 27 107 27c67 -3 132 -30 174 -83z" />
    <glyph glyph-name="eth" unicode="&#xf0;" horiz-adv-x="616" 
d="M278 601l-146 -53l-24 66l104 38c-52 34 -106 63 -153 79h212c17 -10 37 -23 54 -36l104 37l26 -67l-68 -25c100 -95 175 -235 173 -387c0 -136 -98 -262 -253 -262c-93 0 -175 42 -219 119c-26 45 -38 94 -38 146c0 66 16 129 56 183c43 51 106 84 180 90
c34 0 64 -7 78 -20c-21 32 -52 64 -86 92zM304 419c-88 0 -128 -80 -128 -162c0 -77 46 -151 132 -151c84 0 127 78 127 157c0 78 -40 156 -131 156z" />
    <glyph glyph-name="paragraph" unicode="&#xb6;" horiz-adv-x="575" 
d="M193 700h362v-87h-55v-853h-91v853h-99v-853h-91v563h-26c-104 0 -188 85 -188 188c0 105 84 189 188 189z" />
    <glyph glyph-name="sterling" unicode="&#xa3;" horiz-adv-x="530" 
d="M161 517c18 120 123 194 240 194c41 0 77 -9 114 -26v-119h-21c-22 16 -58 22 -85 22c-56 0 -105 -33 -115 -90l-13 -86h169v-116h-188l-14 -106c-4 -25 -22 -56 -43 -68h310v-122h-489l-1 122c54 0 74 3 86 64l16 110h-102v116h119z" />
    <glyph glyph-name="florin" unicode="&#x192;" horiz-adv-x="526" 
d="M561 701l-23 -109h-26c-75 0 -121 -36 -142 -116l-14 -74h119l-23 -107h-117l-68 -340c-28 -140 -130 -193 -263 -195h-39l22 109h27c77 0 112 28 133 106l64 320h-97l23 107h95l21 97c29 141 124 202 269 202h39z" />
    <glyph glyph-name="brokenbar" unicode="&#xa6;" horiz-adv-x="274" 
d="M179 379h-84v354h84v-354zM179 -240h-84v354h84v-354z" />
    <glyph glyph-name="logicalnot" unicode="&#xac;" horiz-adv-x="624" 
d="M549 205h-91v190h-393v91h484v-281z" />
    <glyph glyph-name="bullet" unicode="&#x2022;" horiz-adv-x="320" 
d="M65 348c0 52 43 95 95 95s95 -43 95 -95s-43 -95 -95 -95s-95 43 -95 95z" />
    <glyph glyph-name="plusminus" unicode="&#xb1;" horiz-adv-x="598" 
d="M344 124h-90v189h-189v90h189v189h90v-189h189v-90h-189v-189zM533 0h-468v90h468v-90z" />
    <glyph glyph-name="trademark" unicode="&#x2122;" horiz-adv-x="875" 
d="M625 292h-75l-88 267l-15 -267h-71l19 358c2 27 20 50 49 52c28 1 51 -19 60 -42l85 -260l82 260c10 26 28 42 55 42c31 0 54 -20 55 -52l19 -358h-77l-10 273zM147 625v-333h76v333h112v74h-300v-74h112z" />
    <glyph glyph-name="onesuperior" unicode="&#xb9;" horiz-adv-x="272" 
d="M197 352h-62v287l-52 -44l-38 44l59 51c13 12 29 22 50 22c30 -2 43 -23 43 -51v-309z" />
    <glyph glyph-name="threesuperior" unicode="&#xb3;" horiz-adv-x="318" 
d="M52 425c24 -14 59 -23 85 -23c29 0 62 22 62 55c0 21 -8 32 -21 41c-18 10 -42 13 -63 13h-26v55h19c29 0 74 5 74 45c0 28 -28 44 -54 44c-21 0 -50 -5 -69 -18h-9v60c26 10 51 15 78 15c58 0 118 -33 118 -98c0 -29 -18 -64 -48 -71c39 -12 63 -46 65 -86
c0 -70 -61 -111 -130 -111c-32 0 -59 7 -88 19v60h7z" />
    <glyph glyph-name="twosuperior" unicode="&#xb2;" horiz-adv-x="300" 
d="M255 410v-58h-220v40l137 174c9 11 16 27 18 40c0 32 -25 46 -52 46c-29 0 -61 -8 -75 -23h-9v62c29 15 53 21 85 21c33 0 67 -12 90 -38c17 -19 24 -45 23 -68c0 -27 -10 -53 -26 -73l-106 -123h135z" />
    <glyph glyph-name="registered" unicode="&#xae;" horiz-adv-x="853" 
d="M427 711c199 0 361 -162 361 -362c0 -198 -162 -360 -361 -360c-200 0 -362 162 -362 360c0 200 162 362 362 362zM427 649c-165 0 -300 -134 -300 -300c0 -165 135 -300 300 -300c166 0 300 135 300 300c0 166 -134 300 -300 300zM493 312l113 -160h-96l-102 149h-59
v-149h-77v329c0 44 35 80 79 80h61c35 -1 65 1 98 -16c42 -20 63 -66 63 -111s-16 -85 -54 -109c-9 -5 -17 -10 -26 -13zM349 473v-103h69c16 0 32 3 46 9c23 11 31 32 29 56c0 18 -6 38 -20 46c-16 12 -41 11 -59 11h-47c-10 0 -18 -9 -18 -19z" />
    <glyph glyph-name="copyright" unicode="&#xa9;" horiz-adv-x="851" 
d="M425 711c200 0 361 -162 361 -362c0 -198 -161 -360 -361 -360c-199 0 -360 162 -360 360c0 200 161 362 360 362zM425 643c-162 0 -293 -131 -293 -294c0 -162 131 -292 293 -292c163 0 295 130 295 292c0 163 -132 294 -295 294zM450 560c39 0 71 -9 107 -21v-75h-10
c-26 13 -67 22 -97 23c-33 0 -65 -7 -88 -36c-22 -27 -31 -68 -31 -101c0 -35 10 -74 32 -101c21 -25 54 -38 87 -38c30 2 71 10 98 26h10v-76c-36 -15 -68 -22 -107 -22c-50 0 -99 14 -137 51c-45 43 -62 101 -62 163c0 51 14 104 52 145c37 44 87 62 146 62z" />
    <glyph glyph-name="ordfeminine" unicode="&#xaa;" horiz-adv-x="421" 
d="M131 464c0 -35 27 -43 56 -43c28 0 51 10 74 23v77c-29 -4 -61 -8 -90 -14c-23 -4 -40 -15 -40 -43zM181 637c-28 0 -66 -9 -94 -22h-10v79c37 12 70 19 107 19c81 0 162 -26 161 -121v-240h-81v30c-26 -26 -59 -40 -96 -40c-75 2 -125 53 -122 122c2 61 44 101 101 109
l115 17c0 38 -56 47 -81 47z" />
    <glyph glyph-name="ordmasculine" unicode="&#xba;" horiz-adv-x="430" 
d="M45 527c0 117 71 185 165 185c99 0 175 -68 175 -185s-71 -184 -170 -184s-170 67 -170 184zM131 527c0 -68 28 -109 83 -109s85 41 85 109s-30 110 -85 110c-56 0 -83 -42 -83 -110z" />
    <glyph glyph-name="oe" unicode="&#x153;" horiz-adv-x="932" 
d="M171 262c0 -98 48 -160 119 -160c72 0 119 62 119 160s-48 160 -119 160s-119 -62 -119 -160zM649 425c-66 0 -104 -48 -110 -108h213c-6 66 -39 107 -103 108zM475 75c-44 -62 -106 -86 -184 -86c-149 0 -251 107 -251 273s102 273 251 273c72 0 139 -30 183 -86
c44 59 105 86 173 86c95 0 171 -44 208 -132c26 -64 28 -127 26 -191h-343c13 -83 89 -117 162 -115c45 1 96 8 138 33h16v-119c-57 -17 -105 -22 -164 -22c-74 0 -152 18 -215 86z" />
    <glyph glyph-name="ae" unicode="&#xe6;" horiz-adv-x="867" 
d="M361 136c-16 35 -23 73 -24 114c-36 -6 -71 -10 -107 -17c-35 -7 -61 -26 -61 -66c0 -49 37 -67 79 -67c40 0 80 16 113 36zM430 468c42 51 101 67 152 67c95 0 171 -44 208 -132c26 -64 28 -127 26 -191h-343c13 -83 89 -117 162 -115c45 1 96 8 138 33h16v-119
c-57 -17 -105 -22 -164 -22c-74 0 -143 21 -199 72c-44 -35 -121 -72 -201 -73c-104 -1 -181 70 -184 172c-2 96 70 159 151 170l172 25c-4 51 -84 69 -119 69c-45 0 -100 -12 -139 -31h-14v116c50 14 100 26 155 26c69 0 137 -16 183 -67zM584 425
c-66 0 -104 -48 -110 -108h213c-6 66 -39 107 -103 108z" />
    <glyph glyph-name="mu" unicode="&#xb5;" horiz-adv-x="619" 
d="M204 14v-254h-124v764h124v-325c0 -52 24 -92 80 -92c42 0 95 19 130 43v374h125v-524h-122v36c-46 -26 -100 -46 -151 -46c-24 0 -49 12 -62 24z" />
    <glyph glyph-name="mu" unicode="&#x3bc;" horiz-adv-x="619" 
d="M204 14v-254h-124v764h124v-325c0 -52 24 -92 80 -92c42 0 95 19 130 43v374h125v-524h-122v36c-46 -26 -100 -46 -151 -46c-24 0 -49 12 -62 24z" />
    <glyph glyph-name="macron" unicode="&#xaf;" horiz-adv-x="438" 
d="M45 624v49h348v-49h-348z" />
    <glyph glyph-name="emdash" unicode="&#x2014;" horiz-adv-x="983" 
d="M978 215h-973v91h973v-91z" />
    <glyph glyph-name="endash" unicode="&#x2013;" horiz-adv-x="515" 
d="M510 215h-505v91h505v-91z" />
    <glyph glyph-name="Eth" unicode="&#xd0;" horiz-adv-x="719" 
d="M235 546v-126h171v-89h-171v-208h95c56 0 124 2 163 48c42 50 44 120 44 180c0 51 -5 116 -31 159c-34 61 -101 67 -163 67h-76c-18 0 -32 -14 -32 -31zM100 0v331h-85v89h85v145c0 74 61 135 136 135h101c122 -1 218 -26 280 -122c44 -66 59 -147 59 -222
c0 -90 -20 -180 -72 -250c-64 -83 -157 -106 -257 -106h-247z" />
    <glyph glyph-name="oslash" unicode="&#xf8;" horiz-adv-x="612" 
d="M40 47l60 60c-24 42 -38 95 -38 155c0 166 102 273 251 273c64 0 118 -20 160 -55l49 49l50 -51l-52 -52c27 -44 42 -100 42 -164c0 -166 -100 -273 -249 -273c-67 0 -125 22 -168 61l-54 -54zM422 328l-189 -190c20 -23 47 -36 79 -36c72 0 119 62 119 160
c0 25 -3 46 -9 66zM199 206l186 186c-20 19 -44 30 -73 30c-71 0 -119 -62 -119 -160c0 -20 2 -39 6 -56z" />
    <glyph glyph-name="Oslash" unicode="&#xd8;" horiz-adv-x="791" 
d="M751 651l-82 -82c38 -58 60 -133 60 -219c0 -219 -139 -361 -332 -361c-89 0 -166 30 -224 84l-78 -78l-55 56l83 83c-36 58 -57 131 -57 216c0 219 138 361 331 361c88 0 165 -29 222 -82l78 78zM224 235l300 299c-33 34 -76 55 -127 55c-117 0 -192 -92 -192 -239
c0 -44 7 -82 19 -115zM567 467l-301 -301c33 -35 78 -54 131 -54c117 0 193 91 193 238c0 43 -8 82 -23 117z" />
    <glyph glyph-name="onehalf" unicode="&#xbd;" horiz-adv-x="675" 
d="M153 -13h-70l390 729h69zM197 352h-62v287l-52 -44l-38 44l59 51c13 12 29 22 50 22c30 -2 43 -23 43 -51v-309zM630 58v-58h-220v40l137 174c9 11 16 27 18 40c0 32 -25 46 -52 46c-29 0 -61 -8 -75 -23h-9v62c29 15 53 21 85 21c33 0 67 -12 90 -38
c17 -19 24 -45 23 -68c0 -27 -10 -53 -26 -73l-106 -123h135z" />
    <glyph glyph-name="onequarter" unicode="&#xbc;" horiz-adv-x="634" 
d="M492 282l-96 -145h96v145zM553 308v-171h36v-58h-36v-79h-61v79h-131c-15 0 -28 7 -34 18c-6 10 -7 23 2 36l133 202c10 16 27 23 46 23c28 0 45 -24 45 -50zM153 -13h-70l390 729h69zM197 352h-62v287l-52 -44l-38 44l59 51c13 12 29 22 50 22c30 -2 43 -23 43 -51v-309
z" />
    <glyph glyph-name="threequarters" unicode="&#xbe;" horiz-adv-x="669" 
d="M527 282l-96 -145h96v145zM588 308v-171h36v-58h-36v-79h-61v79h-131c-15 0 -28 7 -34 18c-6 10 -7 23 2 36l133 202c10 16 27 23 46 23c28 0 45 -24 45 -50zM188 -13h-70l390 729h69zM52 425c24 -14 59 -23 85 -23c29 0 62 22 62 55c0 21 -8 32 -21 41
c-18 10 -42 13 -63 13h-26v55h19c29 0 74 5 74 45c0 28 -28 44 -54 44c-21 0 -50 -5 -69 -18h-9v60c26 10 51 15 78 15c58 0 118 -33 118 -98c0 -29 -18 -64 -48 -71c39 -12 63 -46 65 -86c0 -70 -61 -111 -130 -111c-32 0 -59 7 -88 19v60h7z" />
    <glyph glyph-name="questiondown" unicode="&#xbf;" horiz-adv-x="497" 
d="M256 357h117v-89c-2 -37 -6 -72 -26 -106c-26 -44 -61 -59 -104 -82c-30 -18 -56 -44 -56 -81c0 -51 56 -69 98 -69c49 0 101 18 137 50h20v-114c-53 -31 -108 -53 -170 -53c-52 0 -102 15 -144 46c-43 35 -68 82 -68 138c0 62 30 120 79 152c28 21 71 34 94 56
c22 20 23 49 23 76v76zM252 399v125h125v-125h-125z" />
    <glyph glyph-name="guilsinglright" unicode="&#x203a;" horiz-adv-x="408" 
d="M227 261l-162 238h103l175 -238l-175 -239h-103z" />
    <glyph glyph-name="quotesinglbase" unicode="&#x201a;" horiz-adv-x="331" 
d="M65 -148l74 281h127l-123 -281h-78z" />
    <glyph glyph-name="quoteright" unicode="&#x2019;" horiz-adv-x="331" 
d="M65 419l74 281h127l-123 -281h-78z" />
    <glyph glyph-name="quotedblbase" unicode="&#x201e;" horiz-adv-x="524" 
d="M65 -148l74 281h127l-123 -281h-78zM258 -148l74 281h127l-123 -281h-78z" />
    <glyph glyph-name="quotedblright" unicode="&#x201d;" horiz-adv-x="524" 
d="M65 419l74 281h127l-123 -281h-78zM258 419l74 281h127l-123 -281h-78z" />
    <glyph glyph-name="quotedblleft" unicode="&#x201c;" horiz-adv-x="524" 
d="M459 700l-74 -281h-127l123 281h78zM266 700l-74 -281h-127l123 281h78z" />
    <glyph glyph-name="quoteleft" unicode="&#x2018;" horiz-adv-x="331" 
d="M266 700l-74 -281h-127l123 281h78z" />
    <glyph glyph-name="perthousand" unicode="&#x2030;" horiz-adv-x="1135" 
d="M65 532c0 108 56 179 146 179s146 -72 146 -179s-56 -178 -146 -178s-146 71 -146 178zM141 531c0 -56 23 -110 70 -110s70 54 70 110s-23 110 -70 110s-70 -54 -70 -110zM447 167c0 108 56 179 146 179s146 -72 146 -179s-56 -178 -146 -178s-146 71 -146 178zM523 166
c0 -56 23 -110 70 -110s70 54 70 110s-23 110 -70 110s-70 -54 -70 -110zM239 -13h-75l390 729h72zM778 167c0 108 56 179 146 179s146 -72 146 -179s-56 -178 -146 -178s-146 71 -146 178zM854 166c0 -56 23 -110 70 -110s70 54 70 110s-23 110 -70 110s-70 -54 -70 -110z
" />
    <glyph glyph-name="exclamdown" unicode="&#xa1;" horiz-adv-x="321" 
d="M226 -176h-131l15 530h100zM98 398v126h125v-126h-125z" />
    <glyph glyph-name="guillemotleft" unicode="&#xab;" horiz-adv-x="631" 
d="M343 499l-162 -238l162 -239h-103l-175 239l175 238h103zM566 499l-162 -238l162 -239h-103l-175 239l175 238h103z" />
    <glyph glyph-name="guillemotright" unicode="&#xbb;" horiz-adv-x="631" 
d="M450 261l-162 238h103l175 -238l-175 -239h-103zM227 261l-162 238h103l175 -238l-175 -239h-103z" />
    <glyph glyph-name="ellipsis" unicode="&#x2026;" horiz-adv-x="932" 
d="M229 133v-133h-134v133h134zM533 133v-133h-134v133h134zM837 133v-133h-134v133h134z" />
    <glyph glyph-name="periodcentered" unicode="&#xb7;" horiz-adv-x="324" 
d="M229 416v-133h-134v133h134z" />
    <glyph glyph-name="cent" unicode="&#xa2;" horiz-adv-x="486" 
d="M276 104v316c-82 -16 -105 -83 -105 -159s33 -142 105 -157zM349 -8v-88h-73v86c-77 7 -145 48 -187 107c-32 45 -49 101 -49 165c0 77 24 145 67 193c41 46 98 75 169 79v86h73v-89c36 -5 70 -16 106 -31v-113h-16c-22 18 -56 27 -90 32v-314c33 4 67 13 92 27h15v-108
c-36 -18 -71 -27 -107 -32z" />
    <glyph glyph-name="dagger" unicode="&#x2020;" horiz-adv-x="569" 
d="M241 -240v670h-196v94h196v176h100v-176h183v-94h-183v-670h-100z" />
    <glyph glyph-name="Aring" unicode="&#xc5;" horiz-adv-x="682" 
d="M331 544l-94 -262h188zM-1 0l242 646c14 38 53 62 93 62c42 0 78 -25 92 -62l245 -646h-143l-60 163h-274l-61 -163h-134zM340 910c53 0 97 -42 97 -96c0 -53 -44 -95 -97 -95c-54 0 -96 42 -96 95c0 54 42 96 96 96zM340 856c-23 0 -42 -19 -42 -42c0 -24 19 -42 42 -42
c24 0 42 18 42 42c0 23 -18 42 -42 42z" />
    <glyph glyph-name="Ntilde" unicode="&#xd1;" horiz-adv-x="764" 
d="M176 708c45 0 75 -24 98 -59l273 -428v479h122v-700h-129l-323 507v-507h-122v616c0 47 31 91 81 92zM266 761l-65 35c28 48 65 78 118 79c28 0 52 -8 77 -21c17 -12 31 -25 55 -25c26 0 36 17 47 38l65 -35c-26 -48 -59 -79 -117 -79c-24 0 -49 7 -72 18
c-20 12 -35 26 -59 26c-26 0 -36 -16 -49 -36z" />
    <glyph glyph-name="agrave" unicode="&#xe0;" horiz-adv-x="563" 
d="M169 167c0 -49 37 -67 79 -67c40 0 80 16 113 36v118c-43 -8 -87 -12 -131 -21c-35 -7 -61 -26 -61 -66zM366 0v48c-37 -39 -90 -60 -141 -60c-104 0 -181 70 -184 172c-2 96 70 159 151 170l172 25c-4 51 -84 69 -119 69c-45 0 -100 -12 -139 -31h-14v116
c50 14 100 26 155 26c120 0 237 -45 241 -177v-358h-122zM298 562l-111 150h101l87 -150h-77z" />
    <glyph glyph-name="atilde" unicode="&#xe3;" horiz-adv-x="563" 
d="M169 167c0 -49 37 -67 79 -67c40 0 80 16 113 36v118c-43 -8 -87 -12 -131 -21c-35 -7 -61 -26 -61 -66zM366 0v48c-37 -39 -90 -60 -141 -60c-104 0 -181 70 -184 172c-2 96 70 159 151 170l172 25c-4 51 -84 69 -119 69c-45 0 -100 -12 -139 -31h-14v116
c50 14 100 26 155 26c120 0 237 -45 241 -177v-358h-122zM165 585l-65 35c28 48 65 78 118 79c28 0 52 -8 77 -21c17 -12 31 -25 55 -25c26 0 36 17 47 38l65 -35c-26 -48 -59 -79 -117 -79c-24 0 -49 7 -72 18c-20 12 -35 26 -59 26c-26 0 -36 -16 -49 -36z" />
    <glyph glyph-name="aring" unicode="&#xe5;" horiz-adv-x="563" 
d="M169 167c0 40 26 59 61 66c44 9 88 13 131 21v-118c-33 -20 -73 -36 -113 -36c-42 0 -79 18 -79 67zM366 48v-48h122v358c-4 132 -121 177 -241 177c-55 0 -105 -12 -155 -26v-116h14c39 19 94 31 139 31c35 0 115 -18 119 -69l-172 -25c-81 -11 -153 -74 -151 -170
c3 -102 80 -172 184 -172c51 0 104 21 141 60zM281 734c53 0 97 -42 97 -96c0 -53 -44 -95 -97 -95c-54 0 -96 42 -96 95c0 54 42 96 96 96zM281 680c-23 0 -42 -19 -42 -42c0 -24 19 -42 42 -42c24 0 42 18 42 42c0 23 -18 42 -42 42z" />
    <glyph glyph-name="egrave" unicode="&#xe8;" horiz-adv-x="570" 
d="M287 425c-66 0 -104 -48 -110 -108h213c-6 66 -39 107 -103 108zM176 212c13 -83 89 -117 162 -115c45 1 96 8 138 33h16v-119c-57 -17 -105 -22 -164 -22c-74 0 -152 19 -208 70c-57 52 -80 123 -80 200c2 65 19 132 58 186c45 59 112 90 187 90c95 0 171 -44 208 -132
c26 -64 28 -127 26 -191h-343zM302 562l-111 150h101l87 -150h-77z" />
    <glyph glyph-name="ecircumflex" unicode="&#xea;" horiz-adv-x="570" 
d="M287 425c-66 0 -104 -48 -110 -108h213c-6 66 -39 107 -103 108zM176 212c13 -83 89 -117 162 -115c45 1 96 8 138 33h16v-119c-57 -17 -105 -22 -164 -22c-74 0 -152 19 -208 70c-57 52 -80 123 -80 200c2 65 19 132 58 186c45 59 112 90 187 90c95 0 171 -44 208 -132
c26 -64 28 -127 26 -191h-343zM147 563l88 150h100l87 -150h-77l-61 81l-60 -81h-77z" />
    <glyph glyph-name="igrave" unicode="&#xec;" horiz-adv-x="287" 
d="M207 524v-524h-127v524h127zM161 562l-111 150h101l87 -150h-77z" />
    <glyph glyph-name="idieresis" unicode="&#xef;" horiz-adv-x="287" 
d="M207 524v-524h-127v524h127zM3 582v110h108v-110h-108zM175 582v110h110v-110h-110z" />
    <glyph glyph-name="ntilde" unicode="&#xf1;" horiz-adv-x="618" 
d="M356 535c110 0 187 -78 187 -195v-340h-127v327c1 50 -23 91 -79 91c-42 0 -95 -19 -130 -43v-375h-127v524h123v-34c48 24 101 45 153 45zM193 585l-65 35c28 48 65 78 118 79c28 0 52 -8 77 -21c17 -12 31 -25 55 -25c26 0 36 17 47 38l65 -35
c-26 -48 -59 -79 -117 -79c-24 0 -49 7 -72 18c-20 12 -35 26 -59 26c-26 0 -36 -16 -49 -36z" />
    <glyph glyph-name="ograve" unicode="&#xf2;" 
d="M40 262c0 166 102 273 251 273c148 0 249 -107 249 -273s-100 -273 -249 -273s-251 107 -251 273zM171 262c0 -98 48 -160 119 -160c72 0 119 62 119 160s-48 160 -119 160s-119 -62 -119 -160zM307 562l-111 150h101l87 -150h-77z" />
    <glyph glyph-name="otilde" unicode="&#xf5;" 
d="M40 262c0 166 102 273 251 273c148 0 249 -107 249 -273s-100 -273 -249 -273s-251 107 -251 273zM171 262c0 -98 48 -160 119 -160c72 0 119 62 119 160s-48 160 -119 160s-119 -62 -119 -160zM174 585l-65 35c28 48 65 78 118 79c28 0 52 -8 77 -21
c17 -12 31 -25 55 -25c26 0 36 17 47 38l65 -35c-26 -48 -59 -79 -117 -79c-24 0 -49 7 -72 18c-20 12 -35 26 -59 26c-26 0 -36 -16 -49 -36z" />
    <glyph glyph-name="ugrave" unicode="&#xf9;" horiz-adv-x="585" 
d="M243 -12c-110 0 -187 85 -187 195v341h127v-328c-1 -50 23 -91 79 -91c42 0 95 19 130 43v376h127v-524h-123v33c-48 -24 -101 -45 -153 -45zM309 562l-111 150h101l87 -150h-77z" />
    <glyph glyph-name="ucircumflex" unicode="&#xfb;" horiz-adv-x="585" 
d="M243 -12c-110 0 -187 85 -187 195v341h127v-328c-1 -50 23 -91 79 -91c42 0 95 19 130 43v376h127v-524h-123v33c-48 -24 -101 -45 -153 -45zM155 563l88 150h100l87 -150h-77l-61 81l-60 -81h-77z" />
    <glyph glyph-name="Agrave" unicode="&#xc0;" horiz-adv-x="682" 
d="M331 544l-94 -262h188zM-1 0l242 646c14 38 53 62 93 62c42 0 78 -25 92 -62l245 -646h-143l-60 163h-274l-61 -163h-134zM358 738l-111 150h101l87 -150h-77z" />
    <glyph glyph-name="Atilde" unicode="&#xc3;" horiz-adv-x="682" 
d="M331 544l-94 -262h188zM-1 0l242 646c14 38 53 62 93 62c42 0 78 -25 92 -62l245 -646h-143l-60 163h-274l-61 -163h-134zM225 761l-65 35c28 48 65 78 118 79c28 0 52 -8 77 -21c17 -12 31 -25 55 -25c26 0 36 17 47 38l65 -35c-26 -48 -59 -79 -117 -79
c-24 0 -49 7 -72 18c-20 12 -35 26 -59 26c-26 0 -36 -16 -49 -36z" />
    <glyph glyph-name="Otilde" unicode="&#xd5;" horiz-adv-x="754" 
d="M46 350c0 219 138 361 331 361s332 -142 332 -361s-139 -361 -332 -361s-331 142 -331 361zM185 350c0 -147 75 -238 192 -238s193 91 193 238c0 132 -76 239 -193 239s-192 -92 -192 -239zM261 761l-65 35c28 48 65 78 118 79c28 0 52 -8 77 -21c17 -12 31 -25 55 -25
c26 0 36 17 47 38l65 -35c-26 -48 -59 -79 -117 -79c-24 0 -49 7 -72 18c-20 12 -35 26 -59 26c-26 0 -36 -16 -49 -36z" />
    <glyph glyph-name="Ydieresis" unicode="&#x178;" horiz-adv-x="600" 
d="M456 700h-1h140l-227 -432v-268h-135v268l-228 432h152l149 -305zM159 758v110h108v-110h-108zM331 758v110h110v-110h-110z" />
    <glyph glyph-name="Ecircumflex" unicode="&#xca;" horiz-adv-x="590" 
d="M90 0v565c0 74 60 135 135 135h350v-122h-318c-17 0 -32 -14 -32 -31v-120h259v-117h-259v-188h350v-122h-485zM207 739l88 150h100l87 -150h-77l-61 81l-60 -81h-77z" />
    <glyph glyph-name="Egrave" unicode="&#xc8;" horiz-adv-x="590" 
d="M90 0v565c0 74 60 135 135 135h350v-122h-318c-17 0 -32 -14 -32 -31v-120h259v-117h-259v-188h350v-122h-485zM349 738l-111 150h101l87 -150h-77z" />
    <glyph glyph-name="Idieresis" unicode="&#xcf;" horiz-adv-x="325" 
d="M230 700v-700h-135v700h135zM22 758v110h108v-110h-108zM194 758v110h110v-110h-110z" />
    <glyph glyph-name="Igrave" unicode="&#xcc;" horiz-adv-x="325" 
d="M230 700v-700h-135v700h135zM179 738l-111 150h101l87 -150h-77z" />
    <glyph glyph-name="Ograve" unicode="&#xd2;" horiz-adv-x="754" 
d="M46 350c0 219 138 361 331 361s332 -142 332 -361s-139 -361 -332 -361s-331 142 -331 361zM185 350c0 -147 75 -238 192 -238s193 91 193 238c0 132 -76 239 -193 239s-192 -92 -192 -239zM394 738l-111 150h101l87 -150h-77z" />
    <glyph glyph-name="Ucircumflex" unicode="&#xdb;" horiz-adv-x="717" 
d="M510 261v439h122v-397c0 -82 -4 -152 -53 -217c-53 -70 -141 -97 -221 -97c-93 0 -182 38 -230 112c-39 60 -43 133 -43 202v397h135v-438c0 -37 4 -76 26 -107c28 -34 78 -44 118 -44c46 0 91 14 120 52c20 29 26 63 26 98zM221 739l88 150h100l87 -150h-77l-61 81
l-60 -81h-77z" />
    <glyph glyph-name="Ugrave" unicode="&#xd9;" horiz-adv-x="717" 
d="M510 261v439h122v-397c0 -82 -4 -152 -53 -217c-53 -70 -141 -97 -221 -97c-93 0 -182 38 -230 112c-39 60 -43 133 -43 202v397h135v-438c0 -37 4 -76 26 -107c28 -34 78 -44 118 -44c46 0 91 14 120 52c20 29 26 63 26 98zM375 738l-111 150h101l87 -150h-77z" />
    <glyph glyph-name="ydieresis" unicode="&#xff;" horiz-adv-x="554" 
d="M293 172l128 352h118l-231 -637c-39 -101 -109 -127 -229 -127h-23v110c96 -1 128 0 153 69l24 66l-228 519h139zM148 582v110h108v-110h-108zM320 582v110h110v-110h-110z" />
  </font>
</defs>
</svg>
